<?xml version="1.0" encoding="UTF-8"?>
<svg id="a" data-name="Layer 1" xmlns="http://www.w3.org/2000/svg" viewBox="0 0 77.58 77.58">
  <defs>
    <style>
      .b {
        fill: #efefef;
      }

      .c {
        fill: #b91c1c;
      }

      .d {
        fill: #1e3a8a;
      }
    </style>
  </defs>
  <path class="b" d="M34.38,57.65c7.85,6.78,17.53,11.04,27.9,12.09-2.71,2.01-5.63,3.75-8.78,5.02-2.57,1.04-3.41,1.38-6.24,1.03-7.16-.88-14.48-4.69-20.08-9.12s-10.34-10.47-13.72-17.02c2.81-2.41,6.06-4.32,9.42-5.86,3.1,5.16,6.93,9.91,11.49,13.85Z"/>
  <path class="d" d="M44.33,49.08c7.35,6.77,17.78,9.59,27.62,9.73-1.81,2.99-3.98,5.76-6.53,8.15-16.44.13-31.96-10.26-39.79-24.34,3.89-1.45,8.02-2.29,12.19-2.39,1.61,3.39,3.74,6.31,6.5,8.84Z"/>
  <path class="c" d="M23.49,67.16c5.32,4.72,11.56,8.33,18.42,10.29-14.72,1.21-29.58-6.4-36.78-19.28,1.8-2.4,3.78-4.68,6.07-6.62,3.19,5.85,7.31,11.18,12.29,15.6Z"/>
  <path class="d" d="M41.22,24.44c-.45,4.46-1.4,8.93-3.36,12.97-12.92.15-24.62,7.09-32.96,16.47-.15.17-1.13,1.5-1.25,1.41-1.66-3.56-2.78-7.38-3.27-11.29,1.2-2.13,2.91-3.92,4.69-5.58,9.57-8.94,23.33-12.74,36.15-13.97Z"/>
  <path class="b" d="M38.63,21.79c-11.06,1.44-22.37,4.47-31.45,11.1-2.64,1.93-4.97,4.22-7.17,6.64-.07-4.18.48-8.41,1.72-12.4.2-.63.69-2.33,1.02-2.8.19-.27,1.91-1.43,2.3-1.7,10.21-7.19,22.98-12.12,35.66-11.48.48.2.97,9.23.72,10.32-.09.13-2.44.28-2.79.32Z"/>
  <path class="c" d="M40.21,8.27c-8.89-.41-17.93,1.95-25.92,5.7-3.07,1.44-5.97,3.18-8.86,4.94C11.98,7.66,24.67.28,37.76,0c1.07,2.67,1.87,5.45,2.45,8.27Z"/>
  <path class="c" d="M49.46,49.37c-3.85-2.66-6.97-6.35-9.08-10.52,5.5-12.1,4.93-26.5.47-38.83,2.83.12,5.67.51,8.35,1.41,8.37,14.49,6.49,33.01.26,47.94Z"/>
  <path class="b" d="M63.69,9.09c.18.17.37.33.55.5,2.99,11.39,2.62,23.56-.18,34.95-.84,3.41-1.89,6.83-3.4,10-3.08-.72-6.03-1.97-8.75-3.55,6.28-15.01,8.53-33.11,1.28-48.19,3.58,1.46,7.67,3.64,10.5,6.3Z"/>
  <path class="d" d="M69.16,14.84c9.18,11.56,11.22,27.85,4.31,41.08-3.3.03-6.63-.05-9.87-.72,5.61-12.96,6.97-27.68,4.47-41.58.45.29.76.81,1.09,1.23Z"/>
</svg>